<svg id="Layer_1" data-name="Layer 1" xmlns="http://www.w3.org/2000/svg" viewBox="0 0 243.79 279.53"><defs><style>.cls-1{fill:#753085;}.cls-2{fill:#753185;}.cls-3{fill:#ed8024;}.cls-4{fill:#753086;}.cls-5{fill:#31302f;}.cls-6{fill:#272623;}.cls-7{fill:#302e2d;}.cls-8{fill:#31302e;}.cls-9{fill:#302f2e;}.cls-10{fill:#2e2d2c;}.cls-11{fill:#2d2b2a;}.cls-12{fill:#292826;}.cls-13{fill:#323130;}.cls-14{fill:#343332;}.cls-15{fill:#373735;}.cls-16{fill:#21201e;}.cls-17{fill:#ebe9e8;}.cls-18{fill:#6f5077;}.cls-19{fill:#7a4a84;}.cls-20{fill:#6d4a77;}.cls-21{fill:#83668a;}.cls-22{fill:#f2f1f0;}.cls-23{fill:#f6f5f4;}.cls-24{fill:#eeedeb;}</style></defs><path class="cls-1" d="M421.8,320c-4.74,5.6-9.53,11.16-14.18,16.83a2.94,2.94,0,0,1-3.34,1.14c-4.79-.81-9.63-1.4-14.45-2-1.87-.24-3.75-.3-5.63-.44-.9-.07-1.81-.22-2.71-.22-1.42,0-2.83.12-4.25.18-4.45.38-8.92.62-13.35,1.14a112.34,112.34,0,0,0-26.46,6.65c-5.49,2.09-10.89,4.45-16.21,7-3.4,1.61-6.56,3.74-9.84,5.62a11,11,0,0,1-1.11.49l-.2-.25c.27-.3.5-.63.79-.9a123.81,123.81,0,0,1,22-16.15,137,137,0,0,1,26.91-11.73,162.32,162.32,0,0,1,20.61-5.09c3.18-.55,6.41-.81,9.59-1.38a110.36,110.36,0,0,1,17-1.29H421.8Z" transform="translate(-178.01 -202.12)"/><path class="cls-2" d="M186.09,347.12A74.84,74.84,0,0,1,203,342.79c5.3-.64,10.64-1.16,16-1.27,6.12-.13,12.17.91,18.2,1.9a156,156,0,0,1,37.29,11.5A164.65,164.65,0,0,1,297.06,367a1.94,1.94,0,0,0,2.52,0,142.3,142.3,0,0,1,23-13.08,148.77,148.77,0,0,1,30-10,134.9,134.9,0,0,1,15.07-2.37,123,123,0,0,1,16.29-.43,92.5,92.5,0,0,1,29.82,6.1,6.77,6.77,0,0,1,2,1.23l-9.47-1-7.24-.29-1,0h-.31c-4.15,0-8.31-.18-12.44,0a115.14,115.14,0,0,0-24.38,4,146.41,146.41,0,0,0-58.27,31.08c-1.27,1.09-2.55,2.17-3.78,3.3a.78.78,0,0,1-1.22,0l-3.36-2.94A153,153,0,0,0,254,357.06a134.87,134.87,0,0,0-37.65-9.67,117.91,117.91,0,0,0-27.53.38l-1.39.19h-.84C185.81,348,185.8,347.65,186.09,347.12Z" transform="translate(-178.01 -202.12)"/><path class="cls-1" d="M239.12,259.25h2.75c.94,2.64,1.76,5.24,2.79,7.75C248,275.19,252,283,258,289.63c7.6,8.34,16.83,13.87,28.09,15.73,1.11.19,2.22.39,3.33.52s2.24.18,3.7.3a16.46,16.46,0,0,1-1.43.92c-11.66,5.59-23.58,6.43-35.72,1.72a82.22,82.22,0,0,1-27.11-17.75,105.74,105.74,0,0,1-19.74-26.48c-.22-.41-.37-.85-.62-1.42,1-.25,2-.46,2.91-.71a104,104,0,0,1,20-3.19c.22,0,.44,0,.65,0Z" transform="translate(-178.01 -202.12)"/><path class="cls-1" d="M391.58,263.42c-1.35,2.33-2.59,4.8-4.14,7.06-2.93,4.29-6,8.52-9.08,12.69a84,84,0,0,1-36.26,26.31,40.22,40.22,0,0,1-23.73,1.14c-3.35-.88-6.57-2.27-9.85-3.45a5,5,0,0,1-.94-.54,5.38,5.38,0,0,1-.46-.39c1.94-.22,3.77-.35,5.59-.64,15.09-2.44,26.49-10.43,34.76-23.13a88.66,88.66,0,0,0,9.83-21.09c.86-2.62.16-2.14,3-2.11,3.41,0,6.84,0,10.25.19a95.31,95.31,0,0,1,18.14,3l2.54.64C391.31,263.13,391.35,263.2,391.58,263.42Z" transform="translate(-178.01 -202.12)"/><path class="cls-1" d="M194.1,319.56c3.34.28,6.69.57,10,.82.86.07,1.75-.08,2.6.05,6.58,1,13.22,1.8,19.72,3.17a140,140,0,0,1,44,17.37,112.77,112.77,0,0,1,18.12,13.76c-.11.25-.22.5-.34.75-5-2.64-9.84-5.46-14.91-7.88a121.68,121.68,0,0,0-20.21-7.42,128.17,128.17,0,0,0-29.32-4.53,8.43,8.43,0,0,1-.86-.11l.32-.11c-1.94-.13-3.85-.14-5.76-.12a5.09,5.09,0,0,0-1,.21c-4.38.36-8.78.62-13.15,1.12-2.8.31-5.58.94-8.35,1.51a2,2,0,0,1-2.22-.76c-4.62-5.62-9.3-11.18-14-16.77-.22-.26-.42-.55-.79-1.06H194.1Z" transform="translate(-178.01 -202.12)"/><path class="cls-3" d="M282,286.29c-.15-7.5,5.17-14.32,12.16-16.6a18.15,18.15,0,0,1,22.56,9.94,16.07,16.07,0,0,1,.44,11.89A17.22,17.22,0,0,1,307.72,302a17.65,17.65,0,0,1-12.19,1.13,18.12,18.12,0,0,1-11.94-9.73A15.32,15.32,0,0,1,282,286.29Z" transform="translate(-178.01 -202.12)"/><path class="cls-2" d="M290.9,353c-.61-.62-1.25-1.21-1.84-1.84a116.26,116.26,0,0,0-62.63-34.12,88.36,88.36,0,0,0-18.21-1.73,4.87,4.87,0,0,1-4.53-2.3c-4.24-6.08-8.67-12-13-18-.29-.4-.56-.81-1-1.5,2.18.38,4.09.58,5.94,1,6.62,1.67,13.27,3.22,19.81,5.18a159,159,0,0,1,41.87,19.93A123.16,123.16,0,0,1,290,351.07c.42.58.76,1.22,1.14,1.84Z" transform="translate(-178.01 -202.12)"/><path class="cls-2" d="M310.38,350.79c2.59-4,5.95-7.41,9.18-10.91a122.86,122.86,0,0,1,17.31-16.11,174.82,174.82,0,0,1,23-13.91,162.25,162.25,0,0,1,31.15-12c5.52-1.55,11.17-2.64,16.76-3.92.7-.16,1.43-.17,2.41-.29-.55.85-1,1.53-1.4,2.16q-6.85,9.45-13.73,18.89a1.8,1.8,0,0,1-1.21.49c-4.45.33-8.93.48-13.37,1a107.16,107.16,0,0,0-31.75,8.61,113.25,113.25,0,0,0-24,14.14,100.32,100.32,0,0,0-14.1,12.67C310.57,351.27,310.47,351,310.38,350.79Z" transform="translate(-178.01 -202.12)"/><path class="cls-1" d="M300,252.88a81,81,0,0,0-17.87-19.24,103.33,103.33,0,0,1,17.82-31.52c.61.68,1.19,1.22,1.66,1.84a120.52,120.52,0,0,1,11.64,18.55c1.64,3.35,2.91,6.89,4.41,10.31.31.7-.05,1-.45,1.34-3.48,3.31-7.05,6.52-10.35,10-2.19,2.31-4,5-5.94,7.54Z" transform="translate(-178.01 -202.12)"/><path class="cls-4" d="M356.71,237.55c-.62,4.31-1.21,8.63-1.85,12.93-.2,1.29-.55,2.55-.81,3.78a106.51,106.51,0,0,0-26.2,6.27c0-.49-.1-.91-.11-1.33a83.2,83.2,0,0,0-2.3-18.13c-.39-1.7-1-3.35-1.36-5a1.18,1.18,0,0,1,.39-1,98.85,98.85,0,0,1,22.4-12.29c2.9-1.14,5.87-2.11,8.81-3.16.73-.26,1,0,1,.74,0,1.13,0,2.26,0,3.38Q356.72,230.63,356.71,237.55Z" transform="translate(-178.01 -202.12)"/><path class="cls-4" d="M270.93,260.13a82.44,82.44,0,0,0-16.66-4.65c-2.43-.41-4.89-.72-7.35-1a1.09,1.09,0,0,1-1.13-1,129.56,129.56,0,0,1-2.52-16,123.12,123.12,0,0,1,.09-18,11,11,0,0,1,1.17.19,104.65,104.65,0,0,1,30.83,15.28,1.22,1.22,0,0,1,.4,1,104.1,104.1,0,0,0-3.44,18.18,5.8,5.8,0,0,0-.33,1.32c0,1.55,0,3.1,0,4.7Z" transform="translate(-178.01 -202.12)"/><path class="cls-5" d="M335.82,458.76V447.23h-4V459l-2.86-.26V455.9a6.83,6.83,0,0,1-5.38,1.54c-2.5-.24-4.27-2-4-4.36a11,11,0,0,1,1.12-2.76c-1.29-1.72-1.23-3.37.33-4.78a3.84,3.84,0,0,1,5.13.25l-1.26,1.7-.11-.29a10.14,10.14,0,0,0-1.93.37c-.18.07-.33.91-.19,1a11.82,11.82,0,0,0,1.66,1,2.6,2.6,0,0,1,.88.72,7.24,7.24,0,0,1,.48,1.47h-1.35c-1.21.05-2,.66-2,1.55s.75,1.51,2,1.62a4.25,4.25,0,0,0,4.64-3.91c.08-1.23,0-2.46,0-3.81h-1.87l-.28-2.19h53.75c.13.66.26,1.33.4,2.1l-2.09.1v3.25h-3.79a2,2,0,0,0-.86.05,4.33,4.33,0,0,0-.86.7c.29.27.55.72.88.78.86.15,1.74.08,2.61.18,2,.21,3.07,1.21,3.22,2.93a3.54,3.54,0,0,1-2.69,3.65,9.12,9.12,0,0,1-6.52-.74l.43-2.12a20.6,20.6,0,0,0,2.86.76,5.55,5.55,0,0,0,2.32-.26,1.39,1.39,0,0,0,.63-1.18c0-.3-.6-.7-1-.78a13,13,0,0,0-2.07-.05,3.25,3.25,0,0,1-3.34-2.93c-.08-1.87,1-3.05,3-3.28a12.84,12.84,0,0,1,2-.06c.72,0,.76-.31.61-.95h-8.5V459l-2.92-.27V447.24h-3.95V459l-2.83-.27L358,457c-3.09.88-4.86.48-6.2-1.38a4.54,4.54,0,0,1,.06-5.11c1.31-1.78,3.19-2.19,6.14-1.31v-2h-9.6c.68,2.69.15,4.95-2.52,6.4l3,4.87-2.62.68c-.88-1.52-1.72-3-2.65-4.5a1.94,1.94,0,0,0-1.12-.74c-1.06-.26-1.41-.8-1-1.82a4.19,4.19,0,0,1,.73-1.08c1-1.13,1.81-1.07,2.65.17a2.67,2.67,0,0,0,.63-3.68.87.87,0,0,0-.61-.34c-2,0-4.06,0-6.2,0V459ZM358,453.09A1.88,1.88,0,0,0,356,451a2.19,2.19,0,0,0-2.28,2.13,2.24,2.24,0,0,0,2.29,2A1.92,1.92,0,0,0,358,453.09Z" transform="translate(-178.01 -202.12)"/><path class="cls-6" d="M363.12,395.34A20.74,20.74,0,0,0,361,392.7a2.65,2.65,0,0,0-1.8-.4c-1.42.13-1.47.15-1.71-1.32a4,4,0,0,1,5.3,1.15,13.36,13.36,0,0,1,.88,1.5c.51,1.12,1.09,2,2.57,1.74.23-.05.58.53.87.82a5.14,5.14,0,0,1-.87.7,2.94,2.94,0,0,1-.94.07v10.86h-1.77v-3.1c-1.88.6-3.69,1-5.33-.27a5.27,5.27,0,0,1-1.88-4.11c.6,0,1.17-.07,1.73-.15a1.4,1.4,0,0,0,1.41-1.69c0-1-.43-1.61-1.49-1.61H354.1v10.94h-1.77V401c-1.19,0-2.24-.07-3.27,0-1.3.12-1.89.77-1.69,2a19.64,19.64,0,0,0,1,3.2,12.23,12.23,0,0,0,.57,1.18l-1.4.66c-1.62-2.43-2.82-4.86-1.24-7.71-2.09-.65-3.19,0-3.35,2-.13,1.77,0,3.56,0,5.42h-1.54v-2.73c-2.23,1.19-4.12,1-5.52-1a3.7,3.7,0,0,1,.25-4.2c1.46-1.82,3.26-1.3,5.15-.56V397h-8c0,3.29,0,6.52,0,9.75a1.68,1.68,0,0,0,.65,1.14,2.71,2.71,0,0,1,1,3.19,3,3,0,0,1-2.85,2,6.25,6.25,0,0,1-5.69-2.75l1.19-.95A5,5,0,0,0,331,411.6a2.7,2.7,0,0,0,1.63-.34,1.4,1.4,0,0,0,.64-1.88c-.36-.77-1.09-.7-1.8-.47-1.11.36-1.11.35-1.54-.87,1.78-.2,1.55-1.53,1.52-2.76,0-.72,0-1.44,0-2.22H327.7c-.16.69.14,1.67-1.05,1.69-1,0-2.16-.87-2.12-1.83,0-.53.64-1,1-1.57l.31.17V397h-3.55v10.84h-1.6v-2.64c-3.48,1-5.14.69-6.25-1a4.1,4.1,0,0,1,.15-4.24c1.82-2.08,3.91-1.59,6.07-.43V397H312.2v10.84h-1.77V397l-1.74-.11V395.4l1.37-.12c-.17-3.1,1.13-4.36,4.24-4.11a9.11,9.11,0,0,1,6.79,3.65,1.78,1.78,0,0,0,1.26.5q18.18,0,36.37,0Zm-5,6.43c.21,2.24,3.69,2.4,5,1.28a1,1,0,0,0,.29-.66c0-1.8,0-3.6,0-5.44H360.7C361.68,400.16,361.43,400.64,358.16,401.77Zm-15.25-4.84v2.47c.11,0,.19,0,.25,0,1.48-.84,3-1.55,4.4.08,0,0,.13.06.2.06l4.47-.18v-2.43Zm-15.22,4.64h3.7V397h-3.7Zm-9.6,2.76c1.68,0,2.55-.77,2.59-2.37,0-1-1.24-1.88-2.85-1.94a1.85,1.85,0,0,0-2.09,2C315.74,403.73,316.3,404.29,318.09,404.33Zm1.47-9a7.18,7.18,0,0,0-5.86-2.59c-1.67.06-2.25.91-1.82,2.59ZM339.11,400a2.13,2.13,0,0,0-2.05,2.13,2.2,2.2,0,0,0,2.23,2.19,2.58,2.58,0,0,0,2.08-2.45A2,2,0,0,0,339.11,400Z" transform="translate(-178.01 -202.12)"/><path class="cls-6" d="M264.63,399.38V397h-8.47v10.86h-1.78V397.09c-.63-.46-1.88.33-1.76-1,0-.38.71-.7,1.29-1.21a6,6,0,0,1,.54-2.14c1-1.56,2.7-1.7,4.37-1.63a7,7,0,0,1,5,2.46,5.38,5.38,0,0,0,4.52,1.8c5-.14,10-.08,15-.09.29,0,.65-.07.85.08a1.72,1.72,0,0,1,.68.9c0,.15-.46.49-.76.62a2.85,2.85,0,0,1-.94,0v10.9h-1.84V397h-2.87V407.8h-1.81l-.06-1.29a18.83,18.83,0,0,1-2.71.73,6.78,6.78,0,0,1-2.58-.11c-2.39-.64-3-2.61-1.5-4.83-1.1-.44-1.17-1.36-1-2.33.26-1.31.53-1.41,4.22-1.85,0-.19,0-.39,0-.6s0-.35,0-.56h-6.48V407.8h-1.77v-2.64c-2.38,1-4.57,1.36-6.17-1a3.64,3.64,0,0,1,.28-4.45C260.07,398.31,261.88,398.19,264.63,399.38Zm9.9.41h-3.17c-.9,0-1.06.66-.79,1.26.14.33.77.56,1.21.61.67.08,1.37-.12,2,0,.26,0,.7.56.65.77a1.22,1.22,0,0,1-.78.8,7.45,7.45,0,0,1-1.62-.09,1.23,1.23,0,0,0-1.34,1.15,1.09,1.09,0,0,0,.87,1.39,4.68,4.68,0,0,0,4.15-.65,1.62,1.62,0,0,0,.72-1c.07-2.34,0-4.69,0-7h-2Zm-12.6,4.54c2,0,2.71-.65,2.74-2.41,0-1.07-1.1-1.89-2.6-1.91a2.08,2.08,0,0,0-2.33,2.14C259.74,403.7,260.38,404.34,261.93,404.33Zm1.52-9a7,7,0,0,0-5.85-2.6c-1.52.19-2.09,1.16-1.54,2.6Z" transform="translate(-178.01 -202.12)"/><path class="cls-7" d="M346,477.22c.68-4.14,1.37-8.29,2.07-12.52h3.75c-1.19,5.59-2.38,11.17-3.56,16.69a1.82,1.82,0,0,1-.33.1c-1.31,0-2.93.45-3.83-.16s-.81-2.25-1.12-3.46c-.26-1.05-.47-2.12-.7-3.19a15.14,15.14,0,0,0-1-3.2c-.64,3.3-1.29,6.59-1.95,9.95h-4.43c-1.29-5.54-2.59-11.1-3.91-16.74h3.88L337.25,477h.19l2.43-12.29H343c.94,4.17,1.9,8.38,2.85,12.59Z" transform="translate(-178.01 -202.12)"/><path class="cls-8" d="M271.58,459.05l-2.91-.3V447.23h-4V459l-2.83-.26v-3.34L256.24,460l-1.81-1.61,3.58-2.75a4.61,4.61,0,0,1-3.58-5.32c.08-1,0-2,0-3.06l-1.44-.08-.32-2.17h16c-1.37-1.63-3.1-1-4.63-1.27l-.5-2.25H268l-.79-2.62,2.55-.7c.54,2.29,1.06,4.51,1.59,6.79h2.05l.4,2.22h-2.23Zm-14.29-11.84c0,1.4,0,2.71,0,4a1.91,1.91,0,0,0,2,2,2.19,2.19,0,0,0,2.49-1.9c.08-1.37,0-2.74,0-4.16Z" transform="translate(-178.01 -202.12)"/><path class="cls-5" d="M220,425.09a6.17,6.17,0,0,1-.19-.61c-.41-1.74,0-3.29,1.07-4a5.2,5.2,0,0,1,5.18.13c1.33,1,1.42,3.74.06,5.12-.78.8-1.83,1.32-2.64,2.09a4.1,4.1,0,0,0-1.05,1.77c-.17.64.28,1.09,1,1.15a1.1,1.1,0,0,0,1.35-.95,15.9,15.9,0,0,0,.08-1.61h2.67c0,.48.06,1,.13,1.55s.47,1.17,1.15,1c.41-.11,1-.63,1-1,.09-2,.08-4,0-6,0-1.11-.8-1.55-1.9-1.52v-1.75c3.4,0,6.77-.16,10.13,0,2.49.16,3.93,2,4,4.5q.08,2.4,0,4.8a3,3,0,0,1-3.08,3.13,10.11,10.11,0,0,1-1.74,0,2.71,2.71,0,0,1-2.66-2.43,13,13,0,0,1-.08-2.93,2.24,2.24,0,0,1,1.5-2.3,2.63,2.63,0,0,1,3.13,1c.27-2.81-.83-4-3.67-4h-4.2c1.65,1,1.63,2.41,1.6,3.85,0,1.17,0,2.33,0,3.5,0,1.78-.68,2.9-2.16,3.24-1.66.4-3.55.32-4.45-1.5-.79,1.59-2.18,1.75-3.68,1.65a2.84,2.84,0,0,1-2.74-1.63,3.41,3.41,0,0,1,.33-3.62,18.09,18.09,0,0,1,2.28-2c1.58-.8,2.14-1.59,1.86-2.89-.09-.37-.61-.65-.93-1-.32.32-.83.6-.91,1a8,8,0,0,0,.12,1.81,3,3,0,0,1-.15.7l-2.24-.06ZM239.15,429h0c0-.33,0-.65,0-1a.79.79,0,0,0-1-.93,1.47,1.47,0,0,0-.9.92,5.19,5.19,0,0,0,0,2c.07.35.54.91.78.89a1.62,1.62,0,0,0,1.05-.78C239.29,429.88,239.15,429.4,239.15,429Z" transform="translate(-178.01 -202.12)"/><path class="cls-5" d="M308.05,420.3c5.56,0,10.95,0,16.33,0a8.16,8.16,0,0,1,1.83.26,4.47,4.47,0,0,1,3.59,4.69c0,1.46,0,2.92,0,4.37a3.08,3.08,0,0,1-3.23,3.35,5.16,5.16,0,0,1-1.52,0,5.09,5.09,0,0,1-1.88-.75c-1.3-1-1.42-5.27-.26-6.41.91-.9,2.45-.83,3.84.16.39-2.23-.67-3.6-2.92-3.67-1.71-.06-3.42,0-5.44,0,2.17,1,2.2,2.71,2.23,4.45,0,1.06.05,2.12,0,3.17-.12,1.75-.83,2.69-2.16,3a3.5,3.5,0,0,1-4.16-1.48c-.9,1.8-2.51,1.73-4.09,1.46a2.44,2.44,0,0,1-2.1-2.46c-.08-1.85,0-3.7.06-5.55a2.77,2.77,0,0,1,2.09-2.56h-2.07C308.13,421.64,308.09,421,308.05,420.3Zm7.54,7.63a8.22,8.22,0,0,0,.17,2,1.5,1.5,0,0,0,1,.82c.22,0,.76-.57.77-.9a42.16,42.16,0,0,0,0-4.9c-.15-2-1.24-2.74-3.69-2.67a2.63,2.63,0,0,0-2.81,2.81c-.06,1.56-.07,3.12,0,4.68a1.36,1.36,0,0,0,.8,1c.67.2,1-.35,1-1s.09-1.21.13-1.85Zm11.34,1h0c0-.29,0-.58,0-.87a.84.84,0,0,0-.93-1c-.68,0-1,.36-1,1a8.16,8.16,0,0,0,.06,2,1.41,1.41,0,0,0,1,.85c.24,0,.7-.47.86-.83A3.25,3.25,0,0,0,326.93,429Z" transform="translate(-178.01 -202.12)"/><path class="cls-8" d="M351.82,427.92a6.46,6.46,0,0,0,.13,1.81,1.74,1.74,0,0,0,1,1c.65.18,1-.34,1-1a36.22,36.22,0,0,0-.3-4.55,3.19,3.19,0,0,0-3-2.73c-2-.22-4.05-.24-6.15-.34V420.4c.06,0,.12-.1.17-.1,5.31,0,10.63,0,15.94,0a8.29,8.29,0,0,1,2.46.41,4.06,4.06,0,0,1,3.07,4c.07,1.78,0,3.56,0,5.35a2.43,2.43,0,0,1-1.93,2.58,10.72,10.72,0,0,1-3.83,0,2.22,2.22,0,0,1-1.7-2.28c0-.8,0-1.6,0-2.4,0-1.12.19-2.17,1.35-2.61a2.46,2.46,0,0,1,3.13.76c.57-2.23-.58-3.77-2.91-3.84-2-.06-3.93,0-6,0,2.48.9,2.65,3,2.7,5.12,0,1.12-.07,2.25-.16,3.37a2,2,0,0,1-.38,1c-.88,1.24-2.19,1.28-3.53,1.17a2.25,2.25,0,0,1-2.22-1.42,8.35,8.35,0,0,1-2.39,1.34,4.93,4.93,0,0,1-2.83-.35c-2-.87-2.25-5.8-.4-6.86a4.5,4.5,0,0,1,2.79-.38c.37.06.57,1.16.88,1.85a2.05,2.05,0,0,0-1.71,3.17,1.28,1.28,0,0,0,1.1.44,1.49,1.49,0,0,0,.91-.88,8.8,8.8,0,0,0,.16-2Zm11.48,1h0a8.42,8.42,0,0,1,0-.87c.06-.7-.32-1.1-.94-1a1.46,1.46,0,0,0-.94.89,5.15,5.15,0,0,0,0,2.14,1.3,1.3,0,0,0,1,.82c.3,0,.67-.55.85-.93A2.72,2.72,0,0,0,363.3,429Z" transform="translate(-178.01 -202.12)"/><path class="cls-9" d="M225.68,452.15h4.1v-5h-1.72l-.44-2.14h13.83l.4,2.12h-2.23V459l-2.86-.26V447.23h-4V459l-2.92-.27v-4.29h-4.34c-.25.64-.24,1.6-1.42,1.42a3,3,0,0,1-2.56-2.2c-.12-.83.15-1.15,1.4-1.63v-2.22c-.23,0-.44,0-.64,0a2.52,2.52,0,0,1-2.5-1.61,2.37,2.37,0,0,1,.43-2.65,3,3,0,0,1,3-.91,3,3,0,0,1,2.45,3.07c0,.73,0,1.45,0,2.18S225.68,451.32,225.68,452.15Zm-2.36-4.86c-.44-.3-.69-.61-.9-.59s-.39.39-.57.61a2.25,2.25,0,0,0,.7.48C222.71,447.82,222.94,447.55,223.32,447.29Z" transform="translate(-178.01 -202.12)"/><path class="cls-7" d="M368.77,481.45V464.7c.25,0,.52-.07.8-.07,2.57.06,5.16,0,7.73.23a4.06,4.06,0,0,1,3.81,3.74,55.69,55.69,0,0,1,0,8.47c-.26,2.88-2,4.28-4.91,4.36C373.73,481.5,371.3,481.45,368.77,481.45Zm3.68-2.41h2.63a2,2,0,0,0,2.09-1.58,17.79,17.79,0,0,0,0-8.73,2,2,0,0,0-1.86-1.61c-1-.08-1.93,0-2.89,0Z" transform="translate(-178.01 -202.12)"/><path class="cls-10" d="M270.46,481.45V464.5c3,.14,6.07.09,9.06.5a4,4,0,0,1,3.27,4,47.49,47.49,0,0,1-.21,8.35c-.35,2.78-2,4-4.79,4.07C275.36,481.5,272.93,481.45,270.46,481.45Zm3.52-2.4h2.07c1.92,0,2.72-.44,2.89-2.34a52.15,52.15,0,0,0,0-7.5,2.17,2.17,0,0,0-2.13-2.11c-.93-.08-1.87,0-2.83,0Z" transform="translate(-178.01 -202.12)"/><path class="cls-10" d="M326.48,472.86c2,.77,2.45,2.28,2.48,4.08,0,1.54-.08,3.12,1,4.52h-4.42c-.08-1.5-.2-3-.23-4.45-.05-2.1-.58-2.71-2.7-2.83-.72,0-1.44,0-2.27,0v7.27h-3.5V464.83c3,0,5.9-.12,8.82.05a3.37,3.37,0,0,1,3.33,3.29C329.24,470.66,328.62,471.89,326.48,472.86Zm-6.18-.93c1.26-.1,2.43-.1,3.56-.3s1.35-1.25,1.39-2.27-.21-2-1.3-2.23a28.8,28.8,0,0,0-3.65-.32Z" transform="translate(-178.01 -202.12)"/><path class="cls-11" d="M289.73,473.87v7.56H286V464.68h3.74v6.43h4.9v-6.42h3.72v16.72h-3.66v-7.54Z" transform="translate(-178.01 -202.12)"/><path class="cls-7" d="M357.46,477.45l-1,4h-3.76l4.49-16.82c1.54,0,3,0,4.44,0a1.06,1.06,0,0,1,.74.66c1,3.52,1.93,7.06,2.88,10.59.49,1.82,1,3.64,1.5,5.53h-4c-.28-1.14-.52-2.27-.85-3.38a1,1,0,0,0-.68-.59C360,477.41,358.76,477.45,357.46,477.45Zm.57-2.69h3.21c-.52-2.34-1-4.59-1.53-6.83h-.16Z" transform="translate(-178.01 -202.12)"/><path class="cls-7" d="M300.78,481.5c1.52-5.67,3-11.22,4.5-16.82h5c1.49,5.53,3,11.1,4.53,16.76h-4l-1-4c-1.29,0-2.56,0-3.82,0-.23,0-.56.39-.64.66-.27.9-.42,1.84-.69,2.74a1,1,0,0,1-.68.6C303,481.53,301.94,481.5,300.78,481.5Zm8.56-6.72-1.52-6.73-.22,0c-.48,2.21-1,4.41-1.47,6.71Z" transform="translate(-178.01 -202.12)"/><path class="cls-9" d="M290.37,459.15c-.9-1.57-1.73-3.06-2.63-4.51a1.73,1.73,0,0,0-1-.71c-1.18-.24-1.51-.74-1-1.83a4.09,4.09,0,0,1,.65-1c1.08-1.2,1.81-1.16,2.72.13,1.36-.59,1.24-2.86.6-3.74a1.24,1.24,0,0,0-.83-.31c-.61-.05-1.24,0-1.85,0h-2l-.41-2.16h16.71l.34,2.12h-2.21V459l-2.91-.27v-5.33h-6.67l3.14,5.08Zm2.23-8h3.87v-4H292.6Z" transform="translate(-178.01 -202.12)"/><path class="cls-8" d="M370.2,422.25h-1.82v-2h4.74c1.27,0,2.54,0,3.82,0s1.67-.39,1.52-1.73c0-.5-.16-1-.24-1.48,2.22-.24,2.38-.16,2.79,1.23.6,2,.18,3-1.86,4a1.88,1.88,0,0,1,1.4,2c0,1.06-.72,1.4-1.57,1.72,1.87.81,2.21,1.49,2,4-.11,1.58-.74,2.55-2.09,2.82-1.85.36-3.45.2-4.27-1.46-.81,1.54-2.17,1.69-3.64,1.57a2.53,2.53,0,0,1-2.65-2.39,46.64,46.64,0,0,1,0-5.67A3.06,3.06,0,0,1,370.2,422.25Zm5.68,5.89a7.89,7.89,0,0,0,.28,1.94,1.35,1.35,0,0,0,1,.65A1.18,1.18,0,0,0,378,430a3.51,3.51,0,0,0,0-1.82,2.22,2.22,0,0,0-1.07-1,3.15,3.15,0,0,0-1.18-.11v-1.85c.17,0,.27-.05.38-.05.77,0,1.48-.1,1.55-1.1a1.43,1.43,0,0,0-1.39-1.63,13.19,13.19,0,0,0-2.27-.12,2.5,2.5,0,0,0-2.7,2.53,46.52,46.52,0,0,0,0,5,1.3,1.3,0,0,0,.87.92c.32,0,.81-.48,1-.85a6.72,6.72,0,0,0,.21-1.73Z" transform="translate(-178.01 -202.12)"/><path class="cls-12" d="M249,395.41v1.45l-1.69.08v10.85h-1.85V397H242.5v10.84h-1.77v-4.4c-1.57-.29-3-.61-4.36-.76a9.24,9.24,0,0,0-2.21.36c.81,1.09,1.5,2,2.22,3,1,1.31.93,1.56-.72,2-1.09-1.55-2.18-3.08-3.24-4.64a8.9,8.9,0,0,1-.92-1.72c-.1-.27,0-.91.11-.94.38-.08,1-.12,1.18.1a1.56,1.56,0,0,0,2.16.29,2.49,2.49,0,0,0,.74-1.76c.07-2.16-.32-2.49-2.53-2.47h-2.45v-1.47Zm-11.78,6.26c.86,0,1.65-.07,2.44-.12a1.06,1.06,0,0,0,1.08-1.21c0-1.12,0-2.23,0-3.37H237a13,13,0,0,1,.49,2.25A15.34,15.34,0,0,1,237.19,401.67Z" transform="translate(-178.01 -202.12)"/><path class="cls-9" d="M333.46,422.23h-1.57v-2h5.66c1.82,0,2.11-.33,1.86-2.13-.05-.36-.13-.7-.19-1.06,2.07-.27,2.35-.17,2.74,1,.65,2,.17,3.16-1.83,4.22a2.66,2.66,0,0,1,1.76,2.81c0,1.28,0,2.55,0,3.82,0,2.07-1,3.47-3,3.83a12.55,12.55,0,0,1-4.19-.07,3.09,3.09,0,0,1-2.71-3.1c-.1-1.63-.08-3.27-.05-4.9A2.84,2.84,0,0,1,333.46,422.23Zm1.39,4.3h0c0,.91-.06,1.82,0,2.72a1.81,1.81,0,0,0,2,1.69c1.12,0,1.86-.53,1.92-1.63a51.77,51.77,0,0,0,0-5.43c-.06-1.25-.71-1.67-2.09-1.63a1.69,1.69,0,0,0-1.88,1.78C334.81,424.86,334.85,425.7,334.85,426.53Z" transform="translate(-178.01 -202.12)"/><path class="cls-6" d="M303.21,407.83h-1.77V397h-2.93v10.85h-1.8v-3c-4.7,1-7.23-.61-7-4.5l1.58-.1a1.37,1.37,0,0,0,1.43-1.56c0-1.17-.57-1.73-1.57-1.73a9.75,9.75,0,0,1-1.95,0,1.18,1.18,0,0,1-.68-.84c0-.17.44-.65.69-.65,5.17,0,10.33,0,15.55,0v1.51l-1.51.08Zm-11.84-6.13a2.13,2.13,0,0,0,1.87,1.92,3.63,3.63,0,0,0,3.19-.6.82.82,0,0,0,.23-.58c0-1.83,0-3.66,0-5.47H293.9C294.84,399.29,294.83,401.14,291.37,401.7Z" transform="translate(-178.01 -202.12)"/><path class="cls-11" d="M253.46,481.45h-3.78V467.28h-4.23v-2.6H257.7v2.52h-4.24Z" transform="translate(-178.01 -202.12)"/><path class="cls-5" d="M254.75,417H257c1.39,2.71,1,4.23-1.32,5.26a1.75,1.75,0,0,1,1.11,2.27c-.23.65-.91,1.13-1.35,1.65,1.53.23,2.08,1.47,2,3.16-.1,2-.93,3.16-2.92,3.49a12,12,0,0,1-3.79,0c-2.16-.36-2.25-.59-2.19-2.76a31.24,31.24,0,0,0,3.84.83,1.77,1.77,0,0,0,2.13-2,1.52,1.52,0,0,0-1.48-1.68c-.86-.09-1.73-.1-2.65-.15v-2c.58,0,1.14,0,1.7,0,1.37,0,1.88-.46,1.87-1.45s-.6-1.44-1.88-1.45h-3.28v-2h4.53c1.54,0,1.83-.35,1.63-1.91C254.91,417.94,254.83,417.52,254.75,417Z" transform="translate(-178.01 -202.12)"/><path class="cls-13" d="M282.63,423.81h1.42c1.56,0,2.05.25,2.25,1.83a21.27,21.27,0,0,1,0,5,3,3,0,0,1-1.41,1.88c-2.72,1.56-5.54.2-6.21-2.87-.15-.7-.06-1.79-1.15-1.6s-.67,1.18-.61,1.85c.09,1,.33,2,.52,3.06h-1.17c-1.76,0-1.94-.16-2.18-1.9-.05-.36-.07-.73-.1-1.09-.33-3.81,2.22-4.46,5-3.87a2.85,2.85,0,0,1,2.17,2.36,5.67,5.67,0,0,0,.41,1.57c.21.38.7.59,1.07.88.27-.37.77-.74.78-1.11C283.57,427.79,283.79,425.77,282.63,423.81Z" transform="translate(-178.01 -202.12)"/><path class="cls-14" d="M236.68,464.69v16.72h-3.76V464.69Z" transform="translate(-178.01 -202.12)"/><path class="cls-14" d="M222.69,481.46H219V464.7h3.7Z" transform="translate(-178.01 -202.12)"/><path class="cls-7" d="M296.88,426.74c0,.66,0,1.31,0,2,0,2-.81,3.06-2.77,3.44a7.75,7.75,0,0,1-2.8,0c-1.95-.37-2.76-1.45-2.78-3.43,0-1.28,0-2.55,0-3.82,0-2,.83-3.11,2.76-3.46a8,8,0,0,1,2.81,0c1.93.35,2.75,1.45,2.78,3.45C296.89,425.5,296.88,426.12,296.88,426.74Zm-2.89.05c0-.69,0-1.38,0-2.07a1.21,1.21,0,0,0-1.23-1.36c-.91,0-1.31.54-1.34,1.36,0,1.38,0,2.75,0,4.13,0,.83.4,1.42,1.3,1.41s1.28-.55,1.28-1.41C294,428.16,294,427.48,294,426.79Z" transform="translate(-178.01 -202.12)"/><path class="cls-7" d="M259.28,426.76c0-.84,0-1.68,0-2.51a2.59,2.59,0,0,1,2-2.57,10.3,10.3,0,0,1,3.54-.23c1.87.25,2.75,1.44,2.78,3.33,0,1.38,0,2.76,0,4.14a2.92,2.92,0,0,1-2.55,3.17,8.14,8.14,0,0,1-2.91.1c-2-.31-2.85-1.43-2.87-3.46,0-.66,0-1.31,0-2Zm5.43.08h0c0-.72,0-1.45,0-2.17s-.43-1.32-1.28-1.32a1.21,1.21,0,0,0-1.3,1.3c0,1.45,0,2.91,0,4.36a1.19,1.19,0,0,0,1.33,1.25A1.16,1.16,0,0,0,264.7,429C264.73,428.3,264.71,427.57,264.71,426.84Z" transform="translate(-178.01 -202.12)"/><path class="cls-10" d="M279.28,422.25h-4.87v-2h7.35c2,0,2.27-.39,1.88-2.37l-.15-.74c1.82-.48,2.5-.17,2.85,1.28.49,2.06-.09,3.31-1.78,3.68a9.93,9.93,0,0,1-1.73.12h-1.77c.71,1.29.79,2.83,0,3.18a2.47,2.47,0,0,1-2-.08C278.39,425,278.53,423.34,279.28,422.25Z" transform="translate(-178.01 -202.12)"/><path class="cls-13" d="M374,395.18h1.76v12.64H374Z" transform="translate(-178.01 -202.12)"/><path class="cls-15" d="M221.66,407.84H219.9V395.23c1.72-.23,1.76-.2,1.76,1.47Z" transform="translate(-178.01 -202.12)"/><path class="cls-16" d="M380,407.84h-1.62V395.2H380Z" transform="translate(-178.01 -202.12)"/><path class="cls-16" d="M224.17,395.2c1.72-.12,1.72-.12,1.72,1.47v11.15h-1.72Z" transform="translate(-178.01 -202.12)"/><path class="cls-14" d="M314.27,432.45a4,4,0,0,1,1.46,3.33,1.22,1.22,0,0,1-1.33,1.27c-.82,0-1.45-.25-1.54-1.17A4.25,4.25,0,0,1,314.27,432.45Z" transform="translate(-178.01 -202.12)"/><path class="cls-14" d="M226.18,432.48a4,4,0,0,1,1.44,3.35c-.07.93-.67,1.23-1.47,1.22a1.23,1.23,0,0,1-1.42-1.27A4,4,0,0,1,226.18,432.48Z" transform="translate(-178.01 -202.12)"/><path class="cls-5" d="M226.23,481.43v-2.77h3.18v2.77Z" transform="translate(-178.01 -202.12)"/><path class="cls-9" d="M240.06,481.42v-2.76h3.18v2.76Z" transform="translate(-178.01 -202.12)"/><path class="cls-11" d="M260.3,481.45h-3.16v-2.77h3.16Z" transform="translate(-178.01 -202.12)"/><path class="cls-13" d="M246.87,431.38a1.39,1.39,0,0,1-1.58,1.6,1.34,1.34,0,0,1-1.55-1.5c0-1.15.41-1.63,1.5-1.64S246.86,430.29,246.87,431.38Z" transform="translate(-178.01 -202.12)"/><path class="cls-5" d="M270.87,429.83a1.4,1.4,0,0,1,1.56,1.63c0,1-.57,1.54-1.67,1.51s-1.48-.5-1.48-1.57S269.76,429.81,270.87,429.83Z" transform="translate(-178.01 -202.12)"/><path class="cls-5" d="M300.12,429.84c1.09,0,1.6.5,1.58,1.59a1.37,1.37,0,0,1-1.53,1.55c-1.12,0-1.6-.46-1.61-1.55S299,429.84,300.12,429.84Z" transform="translate(-178.01 -202.12)"/><path class="cls-13" d="M294.87,441.52a1.61,1.61,0,0,1-1.63,1.53,1.53,1.53,0,0,1-1.55-1.59,1.56,1.56,0,0,1,1.6-1.54A1.64,1.64,0,0,1,294.87,441.52Z" transform="translate(-178.01 -202.12)"/><path class="cls-15" d="M277.77,456v2.64h-2.7V456Z" transform="translate(-178.01 -202.12)"/><path class="cls-14" d="M305.57,456v2.66h-2.64V456Z" transform="translate(-178.01 -202.12)"/><path class="cls-14" d="M245.74,458.72h-2.6V456h2.6Z" transform="translate(-178.01 -202.12)"/><path class="cls-17" d="M222.36,425.38a3,3,0,0,0,.15-.7,8,8,0,0,1-.12-1.81c.08-.37.59-.65.91-1,.32.32.84.6.93,1,.28,1.3-.28,2.09-1.86,2.89Z" transform="translate(-178.01 -202.12)"/><path class="cls-18" d="M420.58,319.56h0Z" transform="translate(-178.01 -202.12)"/><path class="cls-18" d="M356.71,237.55q0-6.93,0-13.85c.09,2.35.2,4.69.24,7,0,1.81,0,3.62-.07,5.42A13.4,13.4,0,0,1,356.71,237.55Z" transform="translate(-178.01 -202.12)"/><path class="cls-19" d="M186.09,347.12c-.29.53-.28.88.46.84h.84l-5,.9-.1-.31Z" transform="translate(-178.01 -202.12)"/><path class="cls-20" d="M194.1,319.56H180.71a15.76,15.76,0,0,1,1.94-.21C186.47,319.4,190.28,319.49,194.1,319.56Z" transform="translate(-178.01 -202.12)"/><path class="cls-19" d="M288.22,355.48c.12-.25.23-.5.34-.75l2.89,2.61-.18.24Z" transform="translate(-178.01 -202.12)"/><path class="cls-19" d="M310.38,350.79c.09.24.19.48.29.73L308.45,354l-.26-.2Z" transform="translate(-178.01 -202.12)"/><path class="cls-18" d="M399.1,347.13l7.24.29Z" transform="translate(-178.01 -202.12)"/><path class="cls-21" d="M270.93,260.13h1c0-1.6,0-3.15,0-4.7a5.8,5.8,0,0,1,.33-1.32c-.05,1.77-.11,3.54-.15,5.3C272.15,260.46,272,260.56,270.93,260.13Z" transform="translate(-178.01 -202.12)"/><path class="cls-18" d="M239.12,259.25l-7.07,0Z" transform="translate(-178.01 -202.12)"/><path class="cls-20" d="M377.24,335.49c1.42-.06,2.83-.17,4.25-.18.9,0,1.81.15,2.71.22Z" transform="translate(-178.01 -202.12)"/><path class="cls-20" d="M216.48,335.52a5.09,5.09,0,0,1,1-.21c1.91,0,3.82,0,5.76.12l-.32.11Z" transform="translate(-178.01 -202.12)"/><path class="cls-2" d="M291.1,352.91l0,.44-.22-.31Z" transform="translate(-178.01 -202.12)"/><path class="cls-18" d="M397.83,347.09h0Z" transform="translate(-178.01 -202.12)"/><path class="cls-17" d="M220,425.09l.16.23Z" transform="translate(-178.01 -202.12)"/><path class="cls-22" d="M358,453.09a1.92,1.92,0,0,1-2.05,2.1,2.24,2.24,0,0,1-2.29-2A2.19,2.19,0,0,1,356,451,1.88,1.88,0,0,1,358,453.09Z" transform="translate(-178.01 -202.12)"/><path class="cls-23" d="M257.29,447.21h4.55c0,1.42.06,2.79,0,4.16a2.19,2.19,0,0,1-2.49,1.9,1.91,1.91,0,0,1-2-2C257.27,449.92,257.29,448.61,257.29,447.21Z" transform="translate(-178.01 -202.12)"/><path class="cls-24" d="M326.93,429a3.25,3.25,0,0,1,0,1.17c-.16.36-.62.87-.86.83a1.41,1.41,0,0,1-1-.85,8.16,8.16,0,0,1-.06-2c0-.65.31-1,1-1a.84.84,0,0,1,.93,1c0,.29,0,.58,0,.87Z" transform="translate(-178.01 -202.12)"/><path class="cls-17" d="M223.32,447.29c-.38.26-.61.53-.77.5a2.25,2.25,0,0,1-.7-.48c.18-.22.36-.58.57-.61S222.88,447,223.32,447.29Z" transform="translate(-178.01 -202.12)"/><path class="cls-24" d="M292.6,451.16v-4h3.87v4Z" transform="translate(-178.01 -202.12)"/></svg>